<svg xmlns="http://www.w3.org/2000/svg" width="64" height="64" viewBox="0 0 64 64">
  <!-- wings -->
  <path d="M19 22 q-11 -2 -13 4 v12 q2 6 13 4 Z" fill="#fbfdff" stroke="#cdd6e0" stroke-width="2" stroke-linejoin="round"/>
  <path d="M45 22 q11 -2 13 4 v12 q-2 6 -13 4 Z" fill="#fbfdff" stroke="#cdd6e0" stroke-width="2" stroke-linejoin="round"/>
  <!-- body (pinched peanut) -->
  <path d="M32 5 C42 5 47 13 45 21 C44 26 43 28 44 32 C46 39 47 48 40 55 C36 59 28 59 24 55 C17 48 18 39 20 32 C21 28 20 26 19 21 C17 13 22 5 32 5 Z" fill="#fbfdff" stroke="#cdd6e0" stroke-width="2" stroke-linejoin="round"/>
  <!-- inner contour -->
  <path d="M32 11 C39 11 42 17 41 22 C40 26 39 28 40 32 C41 38 42 45 37 50 C34 53 30 53 27 50 C22 45 23 38 24 32 C25 28 24 26 23 22 C22 17 25 11 32 11 Z" fill="none" stroke="#cdd6e0" stroke-width="1.5"/>
  <!-- central pad core -->
  <rect x="27" y="20" width="10" height="24" rx="5" fill="#bcd6f0"/>
</svg>
