<?xml version="1.0" encoding="iso-8859-1"?>
<!-- License: CC0. SVG Repo 159911 -->
<svg version="1.1" xmlns="http://www.w3.org/2000/svg" xmlns:xlink="http://www.w3.org/1999/xlink" x="0px" y="0px" viewBox="0 0 414.822 414.822" xml:space="preserve">
<g>
	<path style="fill:#A6A6A6;" d="M174.48,207.412L174.48,207.412l-40.983,0c-48.097,0-87.088-38.991-87.088-87.088v0h40.983C135.489,120.324,174.48,159.314,174.48,207.412z"/>
	<path style="fill:#A6A6A6;" d="M174.48,207.412L174.48,207.412l-40.983,0c-48.097,0-87.088,38.991-87.088,87.088v0h40.983C135.489,294.5,174.48,255.509,174.48,207.412z"/>
	<path style="fill:#9A9A9A;" d="M368.413,207.411c0,6.077-0.261,12.089-0.782,18.036h-0.772c-6.859,0-13.066,2.783-17.571,7.278c-4.495,4.495-7.277,10.712-7.277,17.571h21.963c-7.315,34.787-23.34,66.354-45.694,92.328c-38.035,44.205-94.385,72.199-157.278,72.199V0c62.893,0,119.242,27.994,157.278,72.199C349.521,108.503,368.413,155.742,368.413,207.411z"/>
	<path style="fill:#A6A6A6;" d="M368.413,207.411c0,6.077-0.261,12.089-0.782,18.036h-0.772c-6.859,0-13.066,2.783-17.571,7.278c-4.495,4.495-7.277,10.712-7.277,17.571h21.963c-7.315,34.787-23.34,66.354-45.694,92.328c-31.251-36.304-50.143-83.543-50.143-135.212s18.892-98.908,50.143-135.212C349.521,108.503,368.413,155.742,368.413,207.411z"/>
	<path style="fill:#A6A6A6;" d="M258.33,303.684L258.33,303.684l-24.401,0c-28.637,0-51.851,23.215-51.851,51.851v0h24.401C235.115,355.536,258.33,332.321,258.33,303.684z"/>
	<g>
		<circle style="fill:#E6E6E6;" cx="312.512" cy="207.412" r="22.929"/>
		<circle style="fill:#848484;" cx="312.512" cy="207.412" r="14.029"/>
	</g>
</g>
</svg>
