<?xml version="1.0" encoding="UTF-8"?>
<svg xmlns="http://www.w3.org/2000/svg" xmlns:xlink="http://www.w3.org/1999/xlink" width="2100" height="2100" viewBox="0 0 2100 2100">
<path fill-rule="nonzero" fill="rgb(0%, 0%, 0%)" fill-opacity="1" d="M 990.480469 1692.449219 C 942.511719 1685.445312 890.398438 1657.71875 876.398438 1631.753906 C 873.324219 1626.046875 878.417969 1587.164062 891.84375 1513.839844 C 909.113281 1419.53125 910.867188 1403.75 904.546875 1399.425781 C 900.515625 1396.664062 883.046875 1386.503906 865.730469 1376.847656 C 848.277344 1367.109375 816.28125 1341.394531 793.9375 1319.144531 C 732.035156 1257.492188 696.261719 1180.339844 696.261719 1108.46875 C 696.261719 1064.878906 713.570312 1042.949219 769.511719 1015.671875 C 800.921875 1000.351562 885.363281 975.480469 906.046875 975.449219 C 916.324219 975.441406 917.464844 973.359375 916.082031 957.140625 L 914.527344 938.851562 L 870.285156 937.339844 C 818.902344 935.589844 799.765625 927.121094 786.320312 900.179688 C 774.488281 876.46875 734.851562 482.230469 741.777344 457.140625 C 747.066406 438 767.660156 416.519531 788.160156 408.78125 C 797.445312 405.269531 887.320312 403.441406 1050.488281 403.441406 C 1317.570312 403.441406 1322.109375 403.851562 1343.789062 429.679688 C 1363.199219 452.808594 1363.300781 465.238281 1345.5 647.621094 C 1322.109375 887.179688 1321.511719 891.410156 1308.25 909.351562 C 1292.058594 931.238281 1272.730469 937.480469 1224.640625 936.339844 L 1182.960938 935.339844 L 1182.960938 974.148438 L 1208.871094 977.589844 C 1248.660156 982.859375 1323.011719 1008.378906 1352.140625 1026.761719 C 1391.070312 1051.320312 1403.738281 1071.128906 1403.738281 1107.402344 C 1403.738281 1210.648438 1329.269531 1324.757812 1223.878906 1383 C 1188.109375 1402.769531 1187.109375 1403.832031 1190.28125 1418.960938 C 1211.808594 1521.71875 1227.25 1619.300781 1223.519531 1628.972656 C 1204.429688 1678.375 1096.128906 1707.878906 990.480469 1692.449219 Z M 1185.46875 1153.3125 C 1263.609375 1139.734375 1308.398438 1118.957031 1308.398438 1096.289062 C 1308.398438 1050.308594 1134.621094 1015.820312 975.851562 1030.289062 C 840.777344 1042.601562 767.804688 1076.308594 799.769531 1111.632812 C 813.285156 1126.566406 829.789062 1134.011719 874.929688 1145.535156 C 955.621094 1166.140625 1092 1169.554688 1185.46875 1153.3125 Z M 1185.46875 1153.3125 "/>
</svg>
